<svg width="462" height="384" viewBox="0 0 462 384" fill="none" xmlns="http://www.w3.org/2000/svg">
<path d="M216.514 239.138C147.679 265.426 104.124 252.003 96.7272 213.254C92.5786 191.498 97.7085 177.848 97.7085 177.848C102.074 151.628 110.337 130.768 133.009 120.386C153.82 110.854 178.339 114.101 195.049 127.724C198.101 130.211 201.262 132.562 204.632 134.601C220.103 143.943 234.031 148.624 250.395 141.13C260.757 136.387 268.54 128.384 273.23 118.878C273.589 118.171 274.096 117.628 274.82 117.302C276.526 116.52 278.549 117.281 279.334 119.007C279.51 119.394 279.849 119.129 280.871 124.021C286.691 161.208 278.461 183.242 260.994 210.115C259.031 213.132 258.97 220.558 270.543 216.135C279.097 212.86 276.158 228.831 251.747 236.665C239.139 240.721 230.607 241.258 216.514 239.138Z" fill="url(#paint0_linear_2027_65223)" stroke="#2C2247" stroke-width="3"/>
<path opacity="0.5" d="M423.605 376.543C344.347 383.336 317.135 354.155 294.73 333.122C304.198 320.118 303.274 298.615 301.425 289.663C335.953 264.578 407.597 266.424 432.871 288.578C432.871 288.578 502.863 369.75 423.605 376.543Z" fill="url(#paint1_linear_2027_65223)"/>
<path d="M46.2467 118.96C48.8928 117.907 52.0601 120.088 54.4018 120.726C55.5726 121.052 58.9023 118.477 59.8633 119.109C60.6281 116.982 62.5704 117.254 63.1389 118.138C62.9224 117.907 63.3014 118.314 63.1389 118.138C63.3555 118.369 66.7191 122.574 66.9898 122.867C66.7326 122.452 67.2605 123.152 66.9898 122.867C67.3146 123.22 66.692 122.534 67.0642 122.934C67.3755 123.41 66.489 127.127 66.9356 127.473C66.4484 126.943 67.3688 127.942 66.9356 127.473C68.79 129.342 70.4481 132.732 73.2093 134.506C75.9773 136.286 78.055 137.964 81.4321 139.058C84.7619 140.091 88.2473 140.757 91.5431 140.947C94.839 141.137 98.6019 144.426 101.295 144.099C101.911 143.957 105.464 144.677 106.013 144.595C106.507 144.453 105.356 145.091 105.782 145.017C106.277 144.874 104.997 149.718 106.013 144.595C106.392 144.46 108.212 140.036 108.517 139.962C108.828 139.894 108.578 138.99 108.767 138.922C109.146 138.786 109.329 138.718 109.329 138.718C110.391 138.385 111.427 138.29 112.422 138.555C113.484 138.759 114.398 139.207 115.413 139.9C117.315 141.286 119.128 143.508 119.947 146.559L122.228 154.556C123.115 157.546 122.594 160.753 120.787 163.525C119.859 164.816 118.641 166.066 117.206 167.078C115.718 168.03 114.066 168.811 112.225 169.117C112.225 169.117 111.86 169.124 111.176 169.327C110.865 169.395 110.439 169.477 109.884 169.552C109.396 169.565 108.781 169.708 108.178 169.728C107.508 169.817 106.831 169.891 106.04 169.987C105.248 170.075 104.395 170.095 103.549 170.129C102.635 170.218 101.661 170.251 100.693 170.279C99.7253 170.313 98.6357 170.353 97.6138 170.319C93.3366 170.285 89.4858 168.995 84.4167 167.839C79.3544 166.684 73.3176 165.434 68.5667 162.995C63.7548 160.624 59.1663 158.049 55.4643 154.848C51.7624 151.662 48.8184 148.203 46.558 145.085C45.9759 144.324 45.5157 143.549 44.9879 142.842C44.46 142.136 43.1809 143.087 42.7748 142.38C42.3687 141.674 42.1454 140.029 41.7732 139.493C41.4754 138.902 41.9221 137.638 41.6108 137.169C40.3317 137.549 41.1099 136.218 40.9746 135.803C40.8392 135.382 40.6362 135.036 40.5415 134.791C40.2978 134.254 40.1489 133.955 40.1489 133.955C39.4586 132.528 39.2082 130.911 39.2556 129.349C39.303 127.786 39.6481 126.264 40.1489 124.918C41.5634 122.126 43.6005 120.013 46.2467 118.96Z" fill="url(#paint2_linear_2027_65223)"/>
<path opacity="0.32" d="M107.345 168.233C107.521 170.469 107.948 177.474 108.3 179.947C105.87 179.927 103.461 179.458 101.2 178.588C101.011 178.928 100.855 179.281 100.733 179.641C100.273 176.135 100.05 172.602 100.063 169.062V169.056C88.2332 167.833 76.5182 165.142 65.7846 160.148C54.699 155.222 42.6118 145.417 39.4648 134.363C68.1804 170.034 106.1 148.047 107.345 168.233Z" fill="#371A45"/>
<path d="M104.787 196.186C104.827 196.173 104.875 196.159 104.922 196.145C105.132 196.071 105.328 195.948 105.491 195.785C105.653 195.629 105.788 195.452 105.876 195.235C105.971 195.031 106.019 194.807 106.025 194.589C106.032 194.358 105.991 194.141 105.91 193.93C103.961 188.855 102.709 183.079 102.08 176.278C102.046 175.735 102.026 175.211 102.005 174.702C101.924 172.684 101.85 170.775 100.922 169.273C100.117 167.805 97.7485 167.122 94.9804 166.705C71.2459 163.131 55.4568 155.337 45.3052 142.197L45.2307 142.115C40.358 136.619 39.8165 129.518 41.4408 124.905C42.5033 121.881 44.4389 119.918 46.7196 119.503C49.7313 118.966 53.3723 121.086 56.9728 125.455C57.2096 125.754 57.5277 125.972 57.8932 126.073C58.2586 126.182 58.6444 126.175 59.0031 126.053C59.3618 125.938 59.6731 125.72 59.9099 125.421C60.1401 125.129 60.2754 124.769 60.3092 124.395C60.3905 123.451 60.2686 122.547 60.1604 121.739C59.9506 120.183 59.9235 119.551 60.492 119.041L60.519 119.014C60.9522 118.606 61.3853 118.436 61.8726 118.477C62.6983 118.545 63.666 119.211 64.4714 120.264C65.3444 121.406 66.6642 124.81 66.874 128.791L66.9078 129.464L67.3883 129.933C72.234 134.607 77.5737 137.685 85.1536 141.409L85.2619 141.463L85.3837 141.504C86.4395 141.844 87.4885 142.21 88.6052 142.591C94.4322 144.582 100.455 146.654 106.438 145.886C106.878 145.812 107.277 145.574 107.548 145.214C107.819 144.86 107.941 144.412 107.886 143.963C107.832 143.522 107.602 143.121 107.257 142.842C106.912 142.571 106.465 142.441 106.019 142.482C100.834 143.155 95.1969 141.218 89.7421 139.35C88.6999 138.99 87.6238 138.623 86.5816 138.29C79.6176 134.859 74.6501 132.019 70.2646 127.922C69.9194 123.702 68.505 119.884 67.2191 118.192C65.7979 116.33 64.0044 115.223 62.1704 115.073C60.7085 114.951 59.3347 115.454 58.1909 116.52C56.9998 117.594 56.6479 118.858 56.5938 120.047C52.2624 116.14 48.6146 115.691 46.1376 116.133C42.5845 116.765 39.6947 119.551 38.199 123.784C37.1162 126.848 36.8793 130.456 37.529 133.948C38.2532 137.808 40.006 141.395 42.6048 144.337C48.3845 151.798 55.714 157.532 65.0331 161.867C73.1747 165.652 82.8391 168.349 94.5811 170.109L94.7164 170.122L95.0414 170.183C97.2613 170.584 97.8228 170.802 97.9853 171.067C98.4455 171.814 98.5064 173.221 98.5673 174.851C98.5876 175.388 98.6079 175.945 98.6485 176.536V176.577C99.305 183.705 100.631 189.786 102.696 195.16C102.851 195.561 103.149 195.887 103.542 196.077C103.927 196.281 104.367 196.315 104.787 196.186Z" fill="#20263D"/>
<path d="M216.692 168.322C231.012 191.104 232.582 211.188 228.217 223.201C215.724 257.588 181.784 240.785 157.589 242.497C116.617 245.399 98.2089 211.773 100.422 177.555C103.251 133.765 114.073 121.351 148.013 118.701C181.946 116.051 196.233 135.776 216.692 168.322Z" fill="url(#paint3_linear_2027_65223)" stroke="#20263D" stroke-width="3"/>
<path opacity="0.2" d="M172.369 247.05C172.369 247.05 180.193 267.848 178.25 262.711C178.25 262.704 182.514 263.995 181.357 264.627C181.357 264.641 195.873 262.385 207.94 249.068C241.759 217.772 231.357 199.882 220.995 175.809C229.265 282.388 165.594 229.064 172.369 247.05Z" fill="#371A45"/>
<path d="M186.385 47.1145L186.399 47.1553L186.419 47.196C188.977 52.6656 190.385 58.7399 190.29 65.283V65.2898L189.702 130.585C188.565 143.298 170.684 160.929 148.527 161.867C127.492 162.512 110.62 148.788 106.973 139.058L107.548 64.6104C107.724 41.5634 126.342 23.1027 149.21 23.2861C147.234 28.6878 146.246 34.6941 146.923 41.312L149.603 41.4275C152.215 27.458 162.36 17.701 172.051 11.3889C176.883 8.24308 181.553 5.98051 185.011 4.51289C186.115 4.04407 187.096 3.65679 187.915 3.34424C187.759 3.77229 187.583 4.24111 187.407 4.7575C186.487 7.41415 185.343 11.1783 184.47 15.6219C182.738 24.4548 182.034 36.1414 186.385 47.1145Z" fill="url(#paint4_linear_2027_65223)" stroke="#20263D" stroke-width="3"/>
<path d="M125.658 91.2583C125.57 91.7951 121.53 138.956 121.53 138.956C110.722 147.449 103.257 160.195 102.025 175.055C100.178 196.56 111.866 216.026 129.882 225.144C123.554 215.761 120.217 204.17 121.273 191.96C122.505 177.093 129.969 164.354 140.778 155.854C140.778 155.854 142.449 136.652 143.234 126.393C146.219 91.9717 125.658 91.2583 125.658 91.2583Z" fill="url(#paint5_linear_2027_65223)" fill-opacity="0.54"/>
<path d="M188.409 91.2989H188.402L188.395 91.2921C162.502 84.9936 135.492 84.9529 109.598 91.3533C107.92 91.7406 106.56 91.4416 105.653 90.769C104.766 90.1099 104.137 88.9684 104.15 87.3038V87.2902V87.2766C104.137 85.4489 104.143 83.6211 104.143 81.7798V81.5624C104.15 79.6463 104.157 77.7099 104.137 75.7599C104.157 74.102 104.82 72.3286 105.944 70.8542C107.074 69.373 108.59 68.2995 110.221 67.919H110.228L110.234 67.9122C135.715 61.702 162.285 61.6613 187.759 67.8579H187.766C189.376 68.2383 190.899 69.3323 192.043 70.8135C193.173 72.3015 193.843 74.0748 193.87 75.7191C193.735 79.6531 193.762 83.4852 193.796 87.2766C193.775 88.9141 193.146 90.0827 192.259 90.7486C191.373 91.4144 190.053 91.7202 188.409 91.2989Z" fill="url(#paint6_linear_2027_65223)" stroke="#2C2247" stroke-width="3"/>
<path d="M176.783 95.2808C176.675 96.1844 176.512 97.3191 176.296 98.6237C175.714 102.082 174.692 106.736 172.946 111.526C169.433 121.195 163.139 131.006 151.966 133.337C140.833 135.654 132.211 129.219 126.208 121.82C123.223 118.144 120.963 114.299 119.44 111.37C118.912 110.351 118.472 109.441 118.127 108.7C118.628 108.754 119.203 108.809 119.853 108.856C122.614 109.06 126.688 109.121 132.035 108.571C142.355 107.518 157.387 104.202 176.783 95.2808Z" fill="#3F3A54" stroke="#2D293F" stroke-width="3"/>
<path d="M125.117 109.067C125.117 109.067 128.136 113.021 130.883 115.658C132.393 117.098 134.45 117.798 136.521 117.56C142.497 116.887 157.284 114.074 175.077 102.401C175.077 102.401 176.742 95.2468 175.043 96.1437C151.024 108.89 125.117 109.067 125.117 109.067Z" fill="white"/>
<path d="M154.355 120.726C147.235 124.952 142.795 129.817 140.129 132.8C143.56 133.86 147.37 134.098 151.445 133.248C163.938 130.673 168.601 124.069 172.046 113.857C167.735 114.713 159.701 117.519 154.355 120.726Z" fill="#E2364A"/>
<path d="M176.783 95.2808C176.675 96.1844 176.512 97.3191 176.296 98.6237C175.714 102.082 174.692 106.736 172.946 111.526C169.433 121.195 163.139 131.006 151.966 133.337C140.833 135.654 132.211 129.219 126.208 121.82C123.223 118.144 120.963 114.299 119.44 111.37C118.912 110.351 118.472 109.441 118.127 108.7C118.628 108.754 119.203 108.809 119.853 108.856C122.614 109.06 126.688 109.121 132.035 108.571C142.355 107.518 157.387 104.202 176.783 95.2808Z" stroke="#2D293F" stroke-width="3"/>
<path d="M169.304 189.153C168.81 178.146 159.545 169.619 148.608 170.108C137.679 170.604 129.212 179.926 129.706 190.94C130.2 201.948 139.465 210.475 150.402 209.985C161.332 209.496 169.798 200.167 169.304 189.153Z" fill="#EE5B76"/>
<path d="M148.655 171.135C159.023 170.666 167.821 178.751 168.288 189.201C168.755 199.651 160.729 208.504 150.354 208.973C139.986 209.442 131.188 201.357 130.721 190.907C130.254 180.45 138.287 171.603 148.655 171.135Z" stroke="#0F1322" stroke-opacity="0.6" stroke-width="3"/>
<path d="M153.381 198.564C153.191 198.577 153.063 198.591 152.873 198.605L153.042 202.43L150.64 202.559L150.471 198.734C149.97 198.774 149.395 198.754 148.887 198.795L149.056 202.613L146.654 202.742L146.484 198.924C143.892 199.06 141.869 199.155 141.869 199.155V196.702C141.869 196.702 143.195 196.668 143.703 196.627C144.21 196.587 144.63 196.301 144.562 195.425C144.495 194.548 144.123 185.654 144.075 185.029C144.028 184.404 143.628 184.187 142.87 184.241C142.052 184.302 141.097 184.316 141.097 184.316L140.969 181.87C140.969 181.87 143.243 181.754 145.706 181.625L145.544 177.868L147.946 177.739L148.109 181.503C148.677 181.455 149.185 181.482 149.692 181.442L149.53 177.677L151.932 177.555L152.102 181.374C154.525 181.496 157.563 182.271 158.017 184.812C158.558 187.727 156.244 188.977 156.244 188.977C156.244 188.977 159.465 189.602 159.648 192.795C159.776 195.928 158.247 198.312 153.381 198.564Z" fill="white"/>
<path d="M151.411 191.117C150.687 191.171 150.152 191.151 150.152 191.151L148.236 191.246L148.399 195.934C148.663 195.914 149.387 195.86 151.106 195.778C153.753 195.635 154.998 194.657 154.931 192.897C154.863 191.144 152.135 191.063 151.411 191.117Z" fill="#EE5B76"/>
<path d="M153.747 186.334C153.659 184.397 151.269 184.336 150.051 184.363C149.158 184.431 148.576 184.418 148.318 184.438L148.548 189.052L151.764 188.922C152.583 188.746 153.821 188.08 153.747 186.334Z" fill="#EE5B76"/>
<path d="M152.27 163.511C152.426 165.536 149.211 170.673 149.211 170.673C149.211 170.673 145.245 166.093 145.09 164.068C144.934 162.037 146.389 160.325 148.399 160.168C150.328 160.026 152.121 161.568 152.27 163.511Z" stroke="#3F3A54" stroke-width="3" stroke-miterlimit="10"/>
<path d="M189.702 130.578C189.574 140.118 174.434 159.299 151.153 161.643C127.453 164.021 107.826 146.138 107.055 138.385" stroke="#3F3A54" stroke-width="3" stroke-miterlimit="10" stroke-linecap="round"/>
<path d="M176.389 78.0634C176.349 77.9751 176.315 77.8936 176.281 77.8052C176.2 77.6422 176.098 77.4723 175.983 77.316C175.868 77.1529 175.739 77.0035 175.597 76.854L175.381 76.623L175.137 76.4056C174.454 75.828 173.614 75.3388 172.653 74.9651C171.699 74.5642 170.643 74.3332 169.588 74.143L168.796 74.0479C168.532 74.0071 168.268 73.9867 168.004 73.9731L167.212 73.9323C167.077 73.9256 166.948 73.9188 166.813 73.9188L166.393 73.9323L165.561 73.9595C165.283 73.9867 165.006 74.0139 164.735 74.0479C164.464 74.075 164.194 74.1158 163.93 74.1702C163.666 74.2177 163.409 74.2721 163.145 74.3264C161.493 74.7341 160.059 75.4203 158.969 76.2968C159.023 76.1677 159.077 76.0251 159.138 75.896C159.328 75.4815 159.551 75.0942 159.768 74.7137C159.896 74.5303 159.991 74.34 160.126 74.1634C160.194 74.075 160.248 73.9867 160.316 73.8916L160.519 73.6334C160.641 73.4635 160.823 73.2733 160.979 73.0898C161.135 72.9064 161.304 72.7365 161.466 72.5599L161.717 72.3153C161.798 72.2337 161.886 72.1522 161.974 72.0774L162.231 71.8464C162.319 71.7785 162.407 71.7037 162.495 71.629C162.86 71.3368 163.239 71.0787 163.625 70.8612C163.828 70.7457 164.038 70.6438 164.241 70.5555C164.343 70.5079 164.451 70.4604 164.559 70.4196C164.667 70.372 164.782 70.3448 164.864 70.3041L165.033 70.2225C165.114 70.1886 165.188 70.1274 165.256 70.0595C165.317 69.9915 165.378 69.9372 165.412 69.8353C165.425 69.7809 165.439 69.6926 165.419 69.6314C165.378 69.5159 165.276 69.4616 165.141 69.414C165.08 69.4004 165.033 69.38 164.972 69.3664C164.864 69.3393 164.742 69.3189 164.62 69.3121C164.498 69.3053 164.37 69.3053 164.241 69.3189L164.045 69.3325L163.842 69.3664C163.287 69.4684 162.705 69.6858 162.123 69.9983C161.534 70.3041 160.979 70.7253 160.444 71.167L160.065 71.5135C159.937 71.629 159.815 71.7445 159.693 71.8736L159.341 72.2405C159.28 72.3017 159.226 72.3628 159.165 72.4308L158.996 72.6414L158.658 73.0559C158.549 73.1985 158.448 73.348 158.353 73.4975C158.252 73.6402 158.157 73.7897 158.069 73.9391C157.981 74.0886 157.893 74.2381 157.812 74.3876C157.203 75.5494 156.905 76.7181 156.952 77.7305C156.966 77.9751 157 78.2061 157.054 78.4235C157.088 78.5526 157.128 78.6749 157.182 78.7904C157.189 78.8516 157.203 78.9059 157.236 78.9603C157.297 79.0622 157.399 79.1369 157.527 79.2049C157.656 79.266 157.812 79.3 157.967 79.3068C158.123 79.3136 158.279 79.2864 158.414 79.2321L158.516 79.1845C159.246 78.8923 159.971 78.573 160.661 78.308C161.358 78.0362 162.055 77.7984 162.725 77.5878C163.402 77.384 164.085 77.2413 164.742 77.0986C165.087 77.0646 165.405 76.9763 165.75 76.9559C165.919 76.9423 166.089 76.9219 166.258 76.8948L166.772 76.8744C167.097 76.8472 167.503 76.8608 167.875 76.8608C168.248 76.854 168.613 76.888 168.992 76.8948L169.533 76.9423C169.716 76.9491 169.892 76.9695 170.075 77.0035L170.609 77.0714C170.779 77.1054 170.955 77.1326 171.131 77.1665C171.841 77.3024 172.531 77.4995 173.174 77.7441C173.52 77.8732 173.844 78.0159 174.163 78.1721C174.318 78.2537 174.487 78.3284 174.636 78.4167C174.799 78.4983 174.948 78.607 175.083 78.6681L175.347 78.7904C175.469 78.8448 175.611 78.8788 175.76 78.8855C175.909 78.8855 176.051 78.8652 176.179 78.8108C176.301 78.7632 176.403 78.6953 176.457 78.607C176.511 78.5186 176.531 78.4167 176.497 78.3284C176.443 78.2265 176.43 78.1517 176.389 78.0634Z" fill="#1A1F36"/>
<path d="M119.373 78.2063C119.406 78.119 119.434 78.0383 119.462 77.9509C119.53 77.7896 119.614 77.6216 119.709 77.467C119.804 77.3056 119.911 77.1578 120.029 77.0099L120.208 76.7814L120.41 76.5663C120.976 75.9949 121.671 75.511 122.467 75.1413C123.258 74.7447 124.132 74.5162 125.007 74.3279L125.662 74.2338C125.881 74.1935 126.1 74.1733 126.318 74.1599L126.974 74.1196C127.086 74.1129 127.193 74.1061 127.305 74.1061L127.652 74.1196L128.342 74.1465C128.572 74.1733 128.802 74.2002 129.026 74.2338C129.25 74.2607 129.474 74.3011 129.693 74.3548C129.912 74.4019 130.125 74.4557 130.343 74.5094C131.711 74.9127 132.899 75.5916 133.802 76.4587C133.757 76.331 133.712 76.1898 133.662 76.0621C133.505 75.6521 133.32 75.269 133.141 74.8926C133.034 74.7111 132.956 74.5229 132.843 74.3481C132.787 74.2607 132.742 74.1733 132.686 74.0792L132.518 73.8238C132.417 73.6558 132.266 73.4676 132.137 73.2861C132.008 73.1046 131.868 72.9366 131.733 72.7618L131.526 72.5198C131.459 72.4392 131.386 72.3585 131.313 72.2846L131.1 72.056C131.027 71.9888 130.954 71.9149 130.881 71.8409C130.579 71.5519 130.265 71.2965 129.945 71.0814C129.777 70.9671 129.603 70.8663 129.435 70.7789C129.351 70.7319 129.261 70.6848 129.172 70.6445C129.082 70.5974 128.987 70.5705 128.919 70.5302L128.779 70.4495C128.712 70.4159 128.65 70.3554 128.594 70.2882C128.544 70.221 128.493 70.1672 128.465 70.0664C128.454 70.0126 128.443 69.9253 128.46 69.8648C128.493 69.7505 128.577 69.6967 128.69 69.6497C128.74 69.6362 128.779 69.6161 128.83 69.6026C128.919 69.5757 129.02 69.5556 129.121 69.5488C129.222 69.5421 129.329 69.5421 129.435 69.5556L129.598 69.569L129.766 69.6026C130.225 69.7034 130.708 69.9185 131.19 70.2277C131.677 70.5302 132.137 70.947 132.58 71.3839L132.894 71.7267C133 71.8409 133.101 71.9552 133.202 72.0829L133.494 72.4459C133.544 72.5064 133.589 72.5669 133.639 72.6341L133.78 72.8425L134.06 73.2525C134.15 73.3936 134.234 73.5415 134.312 73.6894C134.396 73.8305 134.475 73.9784 134.548 74.1263C134.62 74.2742 134.693 74.4221 134.761 74.5699C135.265 75.7193 135.512 76.8755 135.473 77.877C135.461 78.119 135.433 78.3475 135.388 78.5626C135.36 78.6903 135.327 78.8113 135.282 78.9256C135.276 78.9861 135.265 79.0398 135.237 79.0936C135.187 79.1944 135.103 79.2684 134.996 79.3356C134.89 79.3961 134.761 79.4297 134.632 79.4364C134.503 79.4431 134.374 79.4162 134.262 79.3625L134.178 79.3154C133.572 79.0264 132.972 78.7105 132.401 78.4483C131.823 78.1795 131.246 77.9442 130.691 77.7358C130.13 77.5342 129.564 77.393 129.02 77.2519C128.734 77.2183 128.471 77.1309 128.185 77.1107C128.045 77.0973 127.905 77.0771 127.765 77.0502L127.339 77.0301C127.069 77.0032 126.733 77.0166 126.425 77.0166C126.116 77.0099 125.814 77.0435 125.5 77.0502L125.051 77.0973C124.9 77.104 124.754 77.1242 124.603 77.1578L124.16 77.225C124.02 77.2586 123.874 77.2855 123.728 77.3191C123.14 77.4535 122.568 77.6484 122.035 77.8904C121.75 78.0181 121.48 78.1593 121.217 78.3139C121.088 78.3946 120.948 78.4685 120.825 78.5559C120.69 78.6365 120.567 78.7441 120.455 78.8046L120.236 78.9256C120.135 78.9793 120.017 79.0129 119.894 79.0197C119.771 79.0197 119.653 78.9995 119.546 78.9457C119.446 78.8987 119.361 78.8315 119.317 78.7441C119.272 78.6567 119.255 78.5559 119.283 78.4685C119.328 78.3677 119.339 78.2937 119.373 78.2063Z" fill="#1A1F36"/>
<path d="M310.629 332.734C310.629 332.734 319.168 343.458 335.516 341.569C350.498 339.832 364.171 323.262 371.184 321.278C371.184 321.278 361.918 314.474 358.075 309.097C354.227 303.727 352.218 302.104 349.702 301.045C349.702 301.045 352.748 300.214 353.275 299.648C353.275 299.648 348.488 296.621 345.54 294.606C345.453 294.546 345.373 294.492 345.293 294.431C339.659 290.602 330.487 285.071 315.419 294.002C315.419 294.002 300.91 301.819 301.171 313.012C301.353 320.537 310.629 332.734 310.629 332.734Z" fill="url(#paint7_linear_2027_65223)"/>
<path d="M335.705 343.226C318.636 345.202 309.697 334.251 309.305 333.755C308.912 333.239 299.697 321.038 299.509 313.064C299.224 300.988 314.009 292.887 314.573 292.583C331.159 282.755 341.127 289.576 346.481 293.239C349.364 295.212 354.114 298.214 354.165 298.243C354.583 298.512 354.867 298.95 354.926 299.449C354.991 299.947 354.825 300.44 354.484 300.805C354.385 300.916 354.18 301.133 353.588 301.432C355.347 302.84 357.115 304.894 359.425 308.126C363.072 313.22 372.08 319.863 372.167 319.93C372.684 320.305 372.931 320.944 372.818 321.575C372.705 322.205 372.241 322.712 371.631 322.883C369.337 323.536 365.881 326.225 361.886 329.344C355.147 334.604 346.883 341.052 337.849 342.88C337.156 343.026 336.432 343.139 335.705 343.226ZM356.725 310.071C353.024 304.9 351.238 303.495 349.063 302.589C348.406 302.315 347.993 301.651 348.038 300.944C348.082 300.231 348.572 299.627 349.262 299.435C349.394 299.395 349.527 299.363 349.66 299.323C348.072 298.303 346.1 297.01 344.601 295.995C339.523 292.525 331.019 286.716 316.201 295.489C316.065 295.563 302.597 302.964 302.833 312.979C302.998 319.871 311.858 331.606 311.92 331.689C312.249 332.095 320.14 341.663 335.318 339.907C344.26 338.872 352.905 332.129 359.847 326.708C362.966 324.275 365.621 322.199 367.943 320.888C364.898 318.474 359.523 313.967 356.725 310.071Z" fill="#512717"/>
<path d="M335.646 342.67C318.879 344.613 310.124 333.892 309.763 333.434C309.756 333.428 309.755 333.421 309.748 333.415C309.362 332.905 300.248 320.846 300.07 313.05C299.796 301.315 314.29 293.369 314.867 293.057C331.099 283.439 341.121 290.247 345.965 293.54C346.038 293.588 346.111 293.642 346.183 293.69C349.074 295.669 353.831 298.677 353.881 298.706C354.163 298.885 354.352 299.175 354.388 299.505C354.432 299.835 354.319 300.166 354.096 300.411C353.811 300.717 353.226 301.023 352.53 301.298C354.292 302.514 356.17 304.503 358.992 308.438C362.693 313.601 371.766 320.298 371.861 320.364C372.202 320.612 372.37 321.04 372.299 321.463C372.221 321.879 371.919 322.22 371.508 322.339C369.108 323.023 365.614 325.742 361.574 328.9C354.885 334.12 346.671 340.53 337.764 342.333C337.049 342.474 336.346 342.586 335.646 342.67ZM357.179 309.742C353.401 304.47 351.55 303.024 349.276 302.073C348.838 301.888 348.567 301.449 348.599 300.976C348.631 300.502 348.955 300.098 349.413 299.974C349.944 299.83 350.486 299.658 350.961 299.498C349.287 298.424 346.74 296.782 344.921 295.537C344.827 295.471 344.733 295.405 344.668 295.363C339.889 292.119 330.997 286.08 315.939 294.998C315.802 295.071 302.029 302.631 302.275 312.998C302.44 319.971 311.163 331.615 311.494 332.049C311.769 332.385 320.012 342.239 335.386 340.458C344.483 339.408 353.199 332.604 360.193 327.145C363.642 324.457 366.52 322.209 368.958 320.977C366.115 318.763 360.156 313.895 357.179 309.742ZM310.618 332.736L310.625 332.735L310.618 332.736Z" fill="#371A45"/>
<path d="M308.772 310.321C310.935 302.623 324.191 296.182 330.06 296.498C335.068 296.769 337.58 298.769 339.147 300.917C340.714 303.065 342.272 305.799 345.135 306.254C345.135 306.254 343.77 307.558 342.443 307.625C342.443 307.625 348.612 311.043 349.931 318.293C349.931 318.293 347.924 319.567 346.424 320.958C344.925 322.35 339.392 325.849 337.86 326.725C337.86 326.725 340.808 327.22 341.281 327.872C341.281 327.872 338.616 329.002 336.858 330.703C335.101 332.405 324.736 338.262 317.73 329.472C310.732 320.683 307.753 313.959 308.772 310.321Z" fill="#FFAC48"/>
<path d="M360.39 297.533C360.39 297.533 362.204 298.963 363.668 301.324C365.131 303.686 368.046 306.993 373.09 307.296C378.134 307.599 379.342 306.37 379.342 306.37C379.342 306.37 375.198 306.019 372.58 303.149C369.963 300.279 365.977 296.095 360.39 297.533Z" fill="url(#paint8_linear_2027_65223)"/>
<path d="M373.022 308.406C367.642 308.08 364.455 304.697 362.722 301.91C361.386 299.762 359.716 298.422 359.694 298.403C359.364 298.14 359.21 297.711 359.295 297.302C359.38 296.885 359.697 296.556 360.109 296.45C366.501 294.809 370.984 299.744 373.398 302.394C375.677 304.899 379.393 305.254 379.428 305.258C379.859 305.294 380.224 305.574 380.377 305.983C380.528 306.384 380.427 306.844 380.128 307.15C379.91 307.368 379.269 307.877 377.713 308.189C376.645 308.409 375.134 308.534 373.022 308.406ZM364.615 300.735C366.07 303.077 368.725 305.915 373.162 306.185C373.825 306.227 374.417 306.234 374.94 306.227C373.852 305.699 372.724 304.95 371.766 303.899C369.322 301.219 366.47 298.459 362.837 298.355C363.398 298.999 364.028 299.8 364.615 300.735Z" fill="#371A45"/>
<path d="M374.057 316.996C374.057 316.996 382.513 317.144 386.913 321.242C391.306 325.341 392.001 326.648 394.385 326.471C394.385 326.471 389.95 329.078 385.168 328.131C380.385 327.177 376.171 325.366 372.483 327.135C372.483 327.135 376.469 323.546 380.586 322.918C380.586 322.918 378.227 319.445 374.057 316.996Z" fill="url(#paint9_linear_2027_65223)"/>
<path d="M384.946 329.221C383.846 329.002 382.782 328.744 381.753 328.491C378.375 327.661 375.455 326.946 372.953 328.143C372.457 328.379 371.858 328.215 371.552 327.759C371.245 327.297 371.326 326.683 371.734 326.311C371.885 326.175 374.955 323.434 378.622 322.253C377.592 321.086 375.838 319.345 373.491 317.964C373.053 317.711 372.85 317.191 372.983 316.702C373.122 316.212 373.568 315.878 374.072 315.887C374.433 315.895 383.009 316.093 387.662 320.426C388.56 321.264 389.304 321.98 389.937 322.597C392.425 325.007 392.935 325.458 394.299 325.361C394.812 325.321 395.283 325.646 395.437 326.143C395.591 326.64 395.38 327.171 394.935 327.436C394.812 327.509 392.9 328.618 390.209 329.156C388.66 329.468 386.836 329.594 384.946 329.221ZM388.403 324.202C387.777 323.591 387.04 322.882 386.157 322.056C384.005 320.051 380.714 319.063 378.107 318.579C380.249 320.469 381.437 322.187 381.507 322.29C381.719 322.604 381.763 323.009 381.611 323.364C381.459 323.719 381.135 323.966 380.759 324.021C379.492 324.212 378.22 324.73 377.09 325.324C378.775 325.464 380.513 325.891 382.293 326.328C383.294 326.578 384.337 326.83 385.389 327.041C387.493 327.455 389.555 327.103 391.117 326.633C390.339 326.07 389.506 325.274 388.403 324.202Z" fill="#371A45"/>
<path d="M401.287 325.493C401.287 325.493 403.576 328.195 407.931 328.472C411.068 328.67 414.764 330.009 414.764 330.009C414.764 330.009 409.692 319.953 401.287 325.493Z" fill="url(#paint10_linear_2027_65223)"/>
<path d="M414.385 331.06C414.35 331.05 410.795 329.772 407.862 329.584C403.09 329.283 400.547 326.339 400.441 326.219C400.236 325.979 400.146 325.654 400.186 325.343C400.232 325.025 400.41 324.743 400.673 324.569C403.266 322.86 405.849 322.331 408.349 322.996C413.044 324.25 415.64 329.296 415.748 329.511C415.955 329.921 415.89 330.411 415.588 330.752C415.421 330.938 415.207 331.06 414.974 331.108C414.787 331.146 414.582 331.131 414.385 331.06ZM403.195 325.695C404.161 326.384 405.766 327.226 408.002 327.362C409.362 327.449 410.809 327.733 412.039 328.037C411.016 326.862 409.564 325.618 407.774 325.141C406.876 324.902 405.949 324.878 405.008 325.073C404.408 325.196 403.807 325.401 403.195 325.695Z" fill="#371A45"/>
<path d="M301.921 312.021C301.291 316.355 300.31 319.977 299.217 322.948C297.795 326.808 296.175 329.595 294.828 331.478C293.452 333.425 290.904 334.142 288.706 333.232L277.786 328.673L283.553 289.179L288.958 288.609L295.32 287.939C297.691 287.681 299.927 289.099 300.688 291.355C302.002 295.224 303.374 302.082 301.921 312.021Z" fill="#FF2727"/>
<g opacity="0.3">
<path d="M301.992 311.381C302.292 304.05 301.136 298.756 300.023 295.442C299.182 292.976 296.738 291.433 294.151 291.711L287.204 292.443L283 292.889L283.543 289.164L288.947 288.595L295.307 287.923C297.678 287.665 299.914 289.083 300.674 291.339C301.961 295.142 303.299 301.783 301.992 311.381Z" fill="white"/>
</g>
<g opacity="0.2">
<path d="M299.216 322.948C297.794 326.808 296.174 329.596 294.826 331.479C293.449 333.426 290.901 334.143 288.703 333.232L277.781 328.673L283.549 289.176L288.955 288.606C290.474 294.674 292.719 305.946 291.382 315.283C290.739 319.781 294.569 323.707 299.048 322.977C299.108 322.965 299.162 322.953 299.216 322.948Z" fill="#000072"/>
</g>
<path d="M292.139 335.712C293.909 335.353 295.526 334.339 296.643 332.77C299.227 329.131 302.622 322.628 304.126 312.343C305.63 302.059 304.234 294.862 302.799 290.629C301.697 287.368 298.529 285.347 295.093 285.716L283.328 286.963C282.102 287.102 281.22 288.192 281.351 289.415C281.481 290.637 282.568 291.526 283.794 291.394L295.559 290.146C296.913 290.002 298.161 290.795 298.596 292.071C299.873 295.834 301.107 302.302 299.735 311.702C298.363 321.109 295.331 326.951 293.03 330.189C292.252 331.29 290.832 331.693 289.574 331.167L278.655 326.615C277.524 326.139 276.219 326.681 275.749 327.815C275.28 328.949 275.812 330.258 276.943 330.727L287.862 335.279C289.255 335.867 290.742 335.99 292.139 335.712Z" fill="#371A45"/>
<path d="M302.968 249.374C297.596 253.819 272.191 274.493 275.271 292.041L243.916 283.201C243.878 282.325 243.891 281.411 243.955 280.458L243.954 280.451C244.89 266.809 256.84 246.065 301.56 248.079C301.894 248.089 302.229 248.106 302.563 248.123C303.198 248.154 303.461 248.961 302.968 249.374Z" fill="#FF2727"/>
<g opacity="0.3">
<path d="M301.136 250.893C302.46 249.743 301.907 250.25 302.97 249.369C303.463 248.956 303.201 248.156 302.559 248.119C253.854 245.59 243.378 269.729 243.921 283.191L247.317 284.147C249.193 271.35 264.174 251.192 301.136 250.893Z" fill="white"/>
</g>
<path d="M275.706 294.223C276.881 293.986 277.662 292.844 277.453 291.65C276.406 285.673 278.476 272.479 304.128 251.298L304.381 251.091C305.318 250.317 305.681 249.064 305.298 247.906C304.916 246.748 303.886 245.956 302.677 245.897C279.151 244.669 261.894 249.336 251.375 259.767C242.149 268.913 241.53 279.269 241.694 283.295C241.744 284.524 242.781 285.479 244.001 285.429C245.226 285.371 246.18 284.336 246.131 283.107C245.992 279.671 246.53 270.829 254.495 262.93C263.378 254.122 278.554 249.747 298.529 250.202C275.021 270.416 271.643 284.269 273.077 292.433C273.288 293.647 274.442 294.455 275.646 294.235C275.673 294.233 275.692 294.224 275.706 294.223Z" fill="#371A45"/>
<path d="M285.655 368.447C281.774 362.652 263.337 335.579 271.31 319.638L238.724 319.164C238.438 319.994 238.191 320.876 237.975 321.803L237.976 321.809C234.966 335.156 240.488 358.454 283.928 369.287C284.248 369.367 284.575 369.446 284.902 369.532C285.52 369.673 286.009 368.981 285.655 368.447Z" fill="#FF2727"/>
<g opacity="0.2">
<path d="M285.655 368.447C281.774 362.652 263.337 335.579 271.31 319.638L238.724 319.164C238.438 319.994 238.191 320.876 237.975 321.803L237.976 321.809C234.966 335.156 240.488 358.454 283.928 369.287C284.248 369.367 284.575 369.446 284.902 369.532C285.52 369.673 286.009 368.981 285.655 368.447Z" fill="#000072"/>
</g>
<path d="M285.649 371.72C286.37 371.572 287.027 371.158 287.466 370.517C288.165 369.519 288.177 368.216 287.495 367.208L287.313 366.931C268.786 339.301 270.575 326.067 273.29 320.629C273.837 319.529 273.397 318.192 272.3 317.638C271.203 317.091 269.869 317.533 269.315 318.634C265.609 326.051 264.876 340.293 281.633 366.381C262.354 361.109 249.06 352.582 243.061 341.608C237.687 331.763 239.7 323.131 240.815 319.879C241.214 318.718 240.597 317.445 239.439 317.046C238.281 316.647 237.017 317.268 236.611 318.43C235.302 322.245 232.932 332.349 239.159 343.745C246.258 356.739 261.466 366.14 284.367 371.681C284.806 371.797 285.235 371.799 285.649 371.72Z" fill="#371A45"/>
<path d="M284.71 281.12C286.26 284.903 289.654 295.284 287.538 309.787C285.416 324.298 279.193 333.269 276.624 336.455C275.944 337.287 275.026 337.889 273.992 338.175C263.035 341.147 194.363 359.005 137.752 355.398C47.3443 349.632 15.0437 301.409 4.88764 279.171C1.73313 272.284 2.92386 264.203 7.9047 258.507C21.743 242.671 56.7622 213.129 122.386 218.002C123.111 218.059 123.85 218.114 124.59 218.175C134.688 219.036 145.51 220.703 157.06 223.352C183.805 229.496 211.809 241.255 234.695 252.427C237.148 253.626 239.54 254.818 241.868 255.995C262.714 266.542 278.208 275.944 282.686 278.716C283.594 279.288 284.301 280.122 284.71 281.12Z" fill="white"/>
<path d="M286.115 316.935C286.029 317.263 285.943 317.584 285.855 317.899C285.769 318.22 285.681 318.535 285.58 318.844C285.429 319.362 285.278 319.867 285.112 320.366C284.985 320.766 284.85 321.16 284.714 321.54C284.618 321.828 284.515 322.117 284.41 322.393C284.225 322.907 284.033 323.415 283.838 323.896C283.71 324.208 283.588 324.519 283.466 324.816C283.453 324.831 283.454 324.838 283.448 324.845C283.313 325.164 283.184 325.462 283.048 325.768C281.441 329.438 279.726 332.294 278.335 334.295C278.143 334.572 277.956 334.834 277.786 335.068C277.351 335.673 276.955 336.18 276.625 336.591C276.539 336.695 276.453 336.798 276.36 336.895C276.292 336.969 276.223 337.037 276.148 337.105C275.633 337.582 275.04 337.943 274.375 338.187C274.25 338.233 274.118 338.279 273.992 338.311C273.694 338.393 273.355 338.485 272.983 338.581C272.85 338.613 272.724 338.652 272.585 338.685C271.642 338.942 270.473 339.24 269.097 339.597C268.905 339.649 268.706 339.701 268.506 339.747C268.44 339.767 268.373 339.786 268.3 339.8C268.047 339.864 267.788 339.928 267.523 340C266.432 340.271 265.241 340.564 263.951 340.886C263.359 341.029 262.741 341.181 262.109 341.334C260.711 341.673 259.207 342.029 257.622 342.399C257.236 342.489 256.85 342.579 256.457 342.669C254.879 343.038 253.227 343.414 251.486 343.792C250.187 344.081 248.84 344.375 247.459 344.671C247.032 344.758 246.592 344.86 246.158 344.947C246.158 344.947 251.707 336.418 256.024 322.959C267.265 320.956 277.477 318.85 286.115 316.935Z" fill="#DD3740"/>
<path d="M85.4276 319.945C79.8499 335.059 74.4545 341.914 74.4545 341.914C72.4164 341.106 70.4293 340.258 68.495 339.392C67.8502 339.103 67.2183 338.806 66.5802 338.517C66.4809 338.472 66.3957 338.432 66.3038 338.392C65.7571 338.136 65.2312 337.884 64.698 337.626C64.0863 337.327 63.4673 337.023 62.8556 336.724C62.293 336.442 61.7303 336.159 61.1812 335.875C61.1383 335.852 61.0886 335.829 61.0457 335.806C60.4758 335.517 59.9186 335.22 59.3615 334.924C59.2978 334.895 59.2334 334.86 59.1832 334.831C58.0402 334.22 56.9174 333.607 55.8204 332.977C53.6276 331.733 51.5267 330.452 49.4921 329.152C49.1312 328.919 48.7702 328.687 48.416 328.453C47.1512 327.621 45.92 326.786 44.7153 325.942C44.2502 325.61 43.7924 325.283 43.3341 324.95C39.5084 322.185 36.009 319.342 32.8058 316.465C32.4063 316.106 32.0136 315.746 31.6209 315.387C31.2355 315.033 30.8495 314.673 30.4702 314.313C30.0842 313.952 29.7117 313.591 29.3392 313.23C28.9735 312.868 28.6077 312.506 28.2352 312.144C27.8768 311.789 27.5104 311.42 27.1655 311.063C26.8139 310.706 26.4616 310.343 26.1167 309.986C25.7411 309.591 25.3588 309.197 24.9968 308.8C24.3572 308.116 23.7311 307.43 23.1326 306.748C22.8153 306.395 22.5041 306.035 22.1929 305.675C21.5705 304.955 20.9696 304.246 20.3754 303.537C20.0783 303.183 19.7886 302.834 19.505 302.478C18.6413 301.419 17.826 300.368 17.0384 299.322C16.8062 299.01 16.5747 298.703 16.3426 298.391C16.0639 298.014 15.7919 297.637 15.5133 297.26C15.2713 296.914 15.03 296.574 14.7887 296.235C14.5774 295.927 14.36 295.627 14.1487 295.319C13.8982 294.953 13.6471 294.581 13.4034 294.214C13.1835 293.887 12.9637 293.559 12.7438 293.232C12.7432 293.225 12.7432 293.225 12.7432 293.225C11.7119 291.663 10.7652 290.133 9.89814 288.658C9.66607 288.27 9.44013 287.875 9.22276 287.5C9.0605 287.208 8.89151 286.916 8.72986 286.631C8.7219 286.618 8.71333 286.599 8.70537 286.586C8.38208 286.015 8.07903 285.443 7.77779 284.891C7.60637 284.573 7.44229 284.261 7.27821 283.948C7.00025 283.428 6.74314 282.913 6.48724 282.412C6.32195 282.086 6.17136 281.772 6.01342 281.453C5.88058 281.185 5.75448 280.917 5.62899 280.656C5.5537 280.5 5.47105 280.337 5.40251 280.179C5.3119 280.003 5.23478 279.826 5.15031 279.643C5.06584 279.46 4.9832 279.297 4.90608 279.12C4.13546 277.432 3.62485 275.685 3.36995 273.909C3.32114 273.593 3.28583 273.276 3.25726 272.958C3.23233 272.681 3.20802 272.41 3.19719 272.138C3.18807 272.037 3.18631 271.942 3.18454 271.846C3.17001 271.609 3.16958 271.377 3.1624 271.146C3.15772 270.867 3.17265 270.579 3.18759 270.292C3.19506 270.148 3.19579 270.004 3.21122 269.874C3.21492 269.839 3.21249 269.812 3.21681 269.784C3.23169 269.572 3.24657 269.359 3.2688 269.152C3.29601 268.85 3.33732 268.553 3.37803 268.249C3.42918 267.91 3.48708 267.571 3.55847 267.231C3.62676 266.931 3.68891 266.639 3.7713 266.345C19.1754 285.573 44.5178 307.027 85.4276 319.945Z" fill="#DD3740"/>
<path d="M137.613 357.613C97.93 355.087 65.0477 344.19 39.8916 325.24C19.2267 309.667 8.34781 292.095 2.86473 280.099C-0.638518 272.434 0.682959 263.386 6.23743 257.038C14.9299 247.104 30.3778 233.37 54.6442 224.341C84.1794 213.351 118.802 212.293 157.554 221.188C212.674 233.837 272.434 269.755 283.857 276.824C285.175 277.644 286.186 278.833 286.777 280.264C288.404 284.224 291.941 295.062 289.744 310.104C287.547 325.14 281.048 334.518 278.356 337.851C277.384 339.058 276.074 339.914 274.574 340.317C269.749 341.624 257.368 344.857 240.81 348.206C212.876 353.864 173.056 359.874 137.613 357.613ZM274.903 335.054C277.362 332.007 283.306 323.409 285.343 309.465C287.38 295.52 284.149 285.588 282.661 281.97C282.427 281.405 282.031 280.937 281.513 280.617C270.197 273.612 210.99 238.025 156.551 225.531C68.7174 205.37 24.5045 242.903 9.56741 259.977C5.17855 264.999 4.13013 272.168 6.90532 278.237C16.3315 298.859 47.9639 347.437 137.899 353.165C193.65 356.721 260.572 339.507 273.419 336.014C274.011 335.864 274.524 335.531 274.903 335.054Z" fill="#371A45"/>
<path d="M287.535 309.903C285.418 324.425 279.192 333.41 276.621 336.591C275.941 337.431 275.023 338.033 273.986 338.305C270.313 339.303 260.152 341.972 246.133 344.946C246.133 344.946 256.645 328.777 259.989 305.884C263.332 282.992 257.88 264.498 257.88 264.498C270.468 271.339 279.442 276.798 282.678 278.807C283.593 279.378 284.307 280.206 284.71 281.206C286.262 284.999 289.658 295.388 287.535 309.903Z" fill="#FF2727"/>
<g opacity="0.3">
<path d="M287.844 294.295C287.121 291.389 286.317 289.185 285.743 287.785C285.289 286.668 284.499 285.745 283.476 285.109C280.176 283.059 271.521 277.79 259.314 271.061C258.566 266.909 257.854 264.5 257.854 264.5C270.439 271.344 279.41 276.795 282.644 278.803C283.558 279.367 284.273 280.202 284.675 281.201C285.598 283.442 287.147 287.97 287.844 294.295Z" fill="white"/>
</g>
<path d="M244.271 343.731C244.372 343.571 254.568 327.663 257.792 305.566C261.016 283.469 255.806 265.316 255.749 265.137L254.239 259.99L258.945 262.546C271.626 269.439 280.585 274.893 283.849 276.92C285.175 277.746 286.187 278.936 286.764 280.363C288.392 284.326 291.939 295.171 289.734 310.219C287.538 325.286 281.04 334.658 278.346 337.987C277.367 339.201 276.056 340.051 274.561 340.454C270.849 341.462 260.701 344.123 246.583 347.127L241.336 348.241L244.271 343.731ZM262.19 306.207C259.816 322.477 253.969 335.301 250.559 341.709C262.012 339.181 270.179 337.029 273.413 336.154C273.997 335.998 274.505 335.665 274.89 335.186C277.352 332.145 283.293 323.554 285.329 309.579C287.374 295.623 284.134 285.684 282.637 282.056C282.41 281.498 282.015 281.036 281.496 280.708C278.65 278.944 271.446 274.556 261.186 268.867C262.628 275.977 264.564 289.937 262.19 306.207Z" fill="#371A45"/>
<path d="M94.7474 281.9C88.6166 323.885 74.4372 341.916 74.4372 341.916C30.9276 324.484 12.1873 295.08 4.88874 279.098C1.73954 272.206 2.91749 264.12 7.90699 258.413C19.4843 245.181 45.8552 222.344 92.5341 218.048C92.5348 218.055 100.885 239.915 94.7474 281.9Z" fill="#FF2727"/>
<g opacity="0.2">
<path d="M278.411 331.08C277.731 331.911 276.813 332.513 275.778 332.792C264.823 335.763 196.156 353.614 139.55 350.012C49.1518 344.254 16.8573 296.065 6.69588 273.834C5.84931 271.977 5.32823 270.036 5.09766 268.076C25.8012 293.176 63.5073 321.48 130.534 329.556C136.066 330.221 153.798 337.157 149.059 291.308C147.73 278.402 210.493 279.043 210.335 292.488C210.097 312.532 210.746 329.287 213.956 328.932C241.682 325.896 267.513 320.922 286.1 316.796C286.009 317.145 285.91 317.481 285.812 317.823C283.218 324.585 280.062 329.028 278.411 331.08Z" fill="#000072"/>
</g>
<g opacity="0.3">
<path d="M94.6844 226.566C49.2831 231.255 20.0883 250.706 3.91355 265.648C4.6831 263.016 6.01637 260.53 7.89664 258.383C19.4679 245.163 45.8248 222.348 92.4786 218.055C92.4853 218.055 93.5787 220.918 94.6844 226.566Z" fill="white"/>
</g>
<path d="M73.6059 343.984C29.3909 326.268 10.3084 296.31 2.86726 280.027C-0.644308 272.357 0.684074 263.296 6.23456 256.944C18.0273 243.461 44.9037 220.196 92.3312 215.831L94.0042 215.678L94.6081 217.252C94.9556 218.168 103.092 240.143 96.9418 282.218C90.7926 324.299 76.7675 342.535 76.1758 343.292L75.1439 344.6L73.6059 343.984ZM9.57959 259.883C5.18241 264.916 4.13338 272.09 6.91042 278.17C13.98 293.648 32.0116 321.978 73.6375 339.187C76.8651 334.31 87.5126 316.104 92.5525 281.583C97.6089 247.02 92.6525 226.146 90.9777 220.449C46.1782 225.07 20.7929 247.067 9.57959 259.883Z" fill="#371A45"/>
<path d="M300.841 312.122C300.841 312.122 287.012 318.802 271.487 316.537C255.962 314.272 244.619 303.928 244.619 303.928C244.619 303.928 258.448 297.248 273.973 299.513C289.504 301.777 300.841 312.122 300.841 312.122Z" fill="#FF2727"/>
<g opacity="0.3">
<path d="M300.838 312.117C300.838 312.117 300.271 312.387 299.241 312.801C292.428 309.066 283.577 305.347 273.577 303.899C263.432 302.424 253.782 303.497 246.124 305.185C245.144 304.41 244.618 303.934 244.618 303.934C244.618 303.934 258.448 297.261 273.972 299.519C289.502 301.775 300.838 312.117 300.838 312.117Z" fill="white"/>
</g>
<g opacity="0.2">
<path d="M300.84 312.124C300.84 312.124 287.011 318.796 271.487 316.538C255.957 314.28 244.62 303.937 244.62 303.937C244.62 303.937 245.2 303.659 246.262 303.229C253.519 306.747 262.239 309.913 271.881 311.319C281.716 312.756 291.164 312.15 299.238 310.786C300.277 311.61 300.84 312.124 300.84 312.124Z" fill="#000072"/>
</g>
<path d="M271.17 318.741C255.156 316.405 243.611 306.016 243.129 305.576C242.582 305.082 242.318 304.343 242.429 303.61C242.533 302.879 243 302.25 243.664 301.924C244.257 301.638 258.293 294.979 274.306 297.308C290.32 299.645 301.866 310.033 302.347 310.473C302.894 310.968 303.158 311.706 303.047 312.439C302.943 313.17 302.476 313.799 301.812 314.125C301.467 314.293 296.572 316.621 289.375 318.077C284.208 319.122 277.858 319.716 271.17 318.741ZM300.837 312.123L300.844 312.123L300.837 312.123ZM273.656 301.714C263.462 300.228 253.908 302.833 249.007 304.569C253.204 307.632 261.62 312.85 271.814 314.336C282.007 315.821 291.562 313.217 296.463 311.481C292.258 308.419 283.85 303.2 273.656 301.714Z" fill="#371A45"/>
<path d="M212.461 299.464C209.958 313.328 199.438 323.72 186.568 326.712C182.191 327.734 177.534 327.895 172.833 327.044C155.736 323.955 143.958 308.585 144.884 291.635C144.954 290.211 145.125 288.784 145.384 287.349C148.741 268.772 166.485 256.423 185.012 259.769C203.539 263.116 215.825 280.887 212.461 299.464Z" fill="#FF2727"/>
<path d="M186.589 326.713C182.213 327.734 177.555 327.895 172.854 327.044C155.758 323.955 143.979 308.585 144.906 291.635C145.035 291.862 147.972 296.699 154.034 292.332C160.243 287.864 178.2 292.136 178.2 292.136L186.589 326.713Z" fill="#E53939"/>
<path d="M172.536 328.687L172.831 327.044L172.536 328.687C163.142 326.992 154.97 321.721 149.532 313.861C144.092 305.995 142.04 296.475 143.745 287.054C145.449 277.633 150.711 269.434 158.565 263.969C166.418 258.504 175.916 256.434 185.311 258.13C204.708 261.636 217.626 280.31 214.102 299.763C211.405 314.64 199.867 325.732 185.915 328.559C181.62 329.423 177.092 329.51 172.536 328.687ZM160.456 266.707C153.339 271.661 148.566 279.093 147.021 287.64C145.476 296.187 147.339 304.818 152.27 311.947C157.202 319.076 164.608 323.851 173.131 325.394C190.724 328.575 207.628 316.806 210.825 299.163C214.014 281.521 202.307 264.589 184.714 261.409C180.615 260.667 176.498 260.717 172.538 261.523C168.25 262.393 164.15 264.139 160.456 266.707Z" fill="#371A45"/>
<path d="M187.731 327.498C205.516 325.868 218.637 310.096 217.036 292.269C215.435 274.442 199.72 261.311 181.935 262.941C164.15 264.571 151.03 280.344 152.631 298.171C154.231 315.998 169.946 329.128 187.731 327.498Z" fill="#FF2727"/>
<g opacity="0.2">
<path d="M217.13 293.665C217.243 296.06 217.082 298.507 216.644 300.973C213.452 318.581 196.629 330.29 179.067 327.115C161.5 323.948 149.849 307.094 153.034 289.486C153.092 289.154 153.158 288.828 153.237 288.493C153.916 303.246 164.649 316.089 179.763 318.813C196.993 321.929 213.501 310.72 217.13 293.665Z" fill="#000072"/>
</g>
<g opacity="0.7">
<path d="M217.11 293.672C214.422 280.619 204.083 269.888 190.207 267.385C174.831 264.61 160.004 272.789 153.732 286.37C158.215 270.507 174.072 260.326 190.589 263.31C205.71 266.046 216.451 278.907 217.11 293.672Z" fill="white"/>
</g>
<path d="M178.764 328.763C160.32 325.429 148.035 307.672 151.386 289.178C154.738 270.683 172.462 258.342 190.913 261.675C209.357 265.009 221.642 282.766 218.291 301.261C216.667 310.217 211.661 318.018 204.197 323.208C200.319 325.908 196.021 327.734 191.532 328.643C187.377 329.48 183.057 329.535 178.764 328.763ZM154.663 289.77C151.646 306.455 162.72 322.469 179.36 325.47C195.999 328.472 211.989 317.347 215.006 300.662C218.024 283.977 206.949 267.963 190.31 264.962C186.397 264.257 182.521 264.333 178.833 265.073C166.871 267.498 156.972 277.009 154.663 289.77Z" fill="#371A45"/>
<path d="M186.461 316.563C198.487 315.461 207.358 304.796 206.276 292.742C205.193 280.688 194.567 271.81 182.542 272.912C170.516 274.014 161.645 284.679 162.727 296.733C163.81 308.787 174.436 317.665 186.461 316.563Z" fill="#30AAFC"/>
<g opacity="0.3">
<path d="M180.604 316.309C192.484 318.45 203.856 310.539 206.01 298.629C206.479 296.051 206.474 293.497 206.057 291.055C206.025 291.296 205.984 291.531 205.939 291.781C203.785 303.691 192.406 311.603 180.533 309.461C171.225 307.787 164.377 300.429 162.884 291.599C161.175 303.237 168.973 314.207 180.604 316.309Z" fill="white"/>
</g>
<path d="M180.302 317.952C167.54 315.645 159.037 303.356 161.357 290.56C163.676 277.763 175.947 269.222 188.709 271.529C194.889 272.646 200.266 276.107 203.846 281.287C207.426 286.46 208.777 292.724 207.654 298.928C206.531 305.125 203.071 310.521 197.905 314.117C195.223 315.985 192.249 317.246 189.143 317.878C186.264 318.456 183.275 318.491 180.302 317.952ZM164.634 291.152C162.648 302.139 169.94 312.685 180.898 314.666C186.207 315.625 191.57 314.452 196.006 311.366C200.442 308.281 203.413 303.652 204.377 298.329C205.34 293.005 204.178 287.631 201.106 283.188C198.034 278.745 193.422 275.773 188.113 274.815C185.534 274.349 182.981 274.399 180.556 274.887C172.675 276.488 166.158 282.751 164.634 291.152Z" fill="#371A45"/>
<path d="M206.016 298.628C203.862 310.546 192.478 318.469 180.591 316.319C179.188 316.065 177.848 315.69 176.579 315.193C186.238 314.431 197.062 308.53 198.787 298.206C200.836 285.95 192.347 276.418 182.766 272.905C184.61 272.756 186.495 272.836 188.403 273.179C200.289 275.316 208.17 286.717 206.016 298.628Z" fill="#FF2727"/>
<g opacity="0.2">
<path d="M206.016 298.628C203.862 310.546 192.478 318.469 180.591 316.319C179.188 316.065 177.848 315.69 176.579 315.193C186.238 314.431 197.062 308.53 198.787 298.206C200.836 285.95 192.347 276.418 182.766 272.905C184.61 272.756 186.495 272.836 188.403 273.179C200.289 275.316 208.17 286.717 206.016 298.628Z" fill="#000072"/>
</g>
<path d="M180.29 317.962C178.789 317.69 177.33 317.278 175.963 316.749C175.237 316.468 174.809 315.716 174.924 314.949C175.039 314.182 175.666 313.592 176.443 313.528C185.548 312.809 195.583 307.219 197.137 297.934C199.085 286.294 190.755 277.614 182.188 274.478C181.449 274.212 181.001 273.462 181.108 272.682C181.215 271.901 181.848 271.305 182.625 271.24C184.637 271.076 186.673 271.176 188.692 271.537C194.881 272.654 200.259 276.115 203.84 281.29C207.42 286.464 208.771 292.729 207.648 298.927C206.525 305.133 203.064 310.529 197.897 314.119C195.214 315.987 192.239 317.249 189.133 317.881C186.259 318.458 183.27 318.5 180.29 317.962ZM200.43 298.471C199.035 306.801 192.501 312.288 185.172 314.985C189.024 314.857 192.757 313.628 196.004 311.374C200.441 308.288 203.413 303.659 204.377 298.334C205.342 293.016 204.179 287.641 201.106 283.197C198.597 279.568 195.053 276.92 190.944 275.551C197.419 280.542 202.085 288.569 200.43 298.471Z" fill="#371A45"/>
<path d="M203.623 211.827C187.543 205.039 176.255 215.591 172.6 224.207C167.666 235.825 171.145 250.957 181.324 263.608C182.583 265.171 175.165 277.904 186.894 288.462C192.308 293.334 204.733 290.372 210.743 283.502C216.536 276.878 216.211 268.711 214.939 257.602C213.998 251.813 212.76 239.583 212.76 239.583C212.76 239.583 223.5 220.218 203.623 211.827Z" fill="url(#paint11_linear_2027_65223)"/>
<g opacity="0.32">
<path d="M179.916 276.545C180.403 280.397 182.116 284.644 186.494 288.585C191.908 293.456 204.334 290.494 210.344 283.625C216.144 277 215.812 268.833 214.54 257.724C213.592 251.935 211.785 241.865 211.785 241.865C211.785 241.865 207.386 235.411 207.143 237.741C205.051 242.423 208.043 247.131 209.552 251.976C211.061 256.82 213.525 269.608 207.731 276.232C201.728 283.095 189.296 286.064 183.882 281.185C182.19 279.67 180.897 278.114 179.916 276.545Z" fill="#371A45"/>
</g>
<path d="M211.345 239.814C211.196 245.446 211.589 251.004 212.306 256.576C212.969 261.794 213.578 267.515 212.915 272.618C212.164 279.48 207.501 284.902 201.072 287.28C197.248 288.714 193.018 289.427 189.411 287.803C187.374 286.709 185.804 284.664 184.545 282.796C181.79 278.556 181.628 273.297 182.704 268.398C182.954 266.638 183.841 264.736 183.063 262.84C182.873 262.453 182.677 262.249 182.582 262.113C182.44 261.943 182.108 261.502 181.966 261.325C175.618 253.076 171.205 242.559 172.403 232.02C173.567 221.55 181.107 212.697 191.908 212.058C195.319 211.745 198.845 212.126 202.439 212.69C203.007 212.785 203.542 212.398 203.63 211.827C203.704 211.358 203.447 210.91 203.034 210.726C195.989 207.438 186.995 207.227 180.234 211.555C169.744 218.044 166.015 231.66 168.532 243.252C170.102 251.14 173.865 258.431 178.779 264.702C178.853 264.804 179.043 265.035 179.11 265.13C179.232 265.286 178.955 264.94 178.921 264.824C178.779 264.498 178.792 264.43 178.785 264.362C178.332 267.161 177.452 270.314 177.452 273.385C177.398 275.424 177.621 277.51 178.156 279.534C179.198 283.55 181.594 287.178 184.599 289.944C185.337 290.65 186.433 291.465 187.421 291.914C195.732 295.637 207.061 291.221 212.55 284.426C217.801 278.162 217.862 269.213 217.037 261.61C216.861 260 216.631 257.554 216.34 255.978C215.48 250.658 214.668 244.842 213.389 239.603C213.084 238.448 211.386 238.625 211.345 239.814Z" fill="#20263D"/>
<path d="M201.174 258.682C195.536 260.53 189.066 262.827 183.327 260.618C181.581 259.925 180.147 258.764 178.881 257.357C178.13 256.44 176.749 256.331 175.883 257.153C175.125 257.867 175.037 259.029 175.632 259.851C176.384 260.883 177.223 261.889 178.258 262.711C183.226 266.883 190.576 266.455 196.193 264.056C198.392 263.126 200.402 261.991 202.243 260.435C202.676 260.061 202.731 259.409 202.358 258.974C202.054 258.621 201.573 258.526 201.174 258.682Z" fill="#20263D"/>
<path d="M213.579 250.311C213.66 250.297 213.742 250.277 213.823 250.257C214.628 249.998 215.075 249.129 214.818 248.32C210.791 235.709 197.019 223.663 185.344 222.535C176.316 221.665 170.015 226.489 168.479 235.444C168.337 236.28 168.899 237.075 169.731 237.225C170.57 237.367 171.355 236.803 171.504 235.968C173.21 225.973 180.729 225.185 185.053 225.606C195.476 226.612 208.273 237.891 211.901 249.271C212.124 249.985 212.848 250.42 213.579 250.311Z" fill="#20263D"/>
<path d="M131.443 216.06C131.423 213.2 134.597 211.032 136.039 209.069C136.763 208.09 135.585 204.041 136.512 203.375C134.814 201.887 135.768 200.168 136.797 199.957C136.499 200.073 137.02 199.869 136.797 199.957C137.095 199.842 142.211 198.211 142.583 198.068C142.109 198.157 142.949 197.919 142.583 198.068C143.023 197.892 142.164 198.225 142.678 198.021C143.233 197.898 146.366 200.079 146.84 199.787C146.17 200.052 147.429 199.549 146.84 199.787C149.243 198.734 152.992 198.408 155.645 196.465C158.298 194.522 160.612 193.19 162.853 190.418C165.018 187.679 166.9 184.656 168.274 181.639C169.647 178.622 174.067 176.292 174.737 173.656C174.831 173.024 177.132 170.218 177.22 169.783C179.833 156.968 192.049 157.845 192.049 157.845C195.148 158.096 197.937 159.754 199.852 162.445C199.859 162.458 199.872 162.472 199.879 162.485C201.3 164.687 201.943 167.303 201.889 169.925C201.686 179.771 198.126 185.723 197.761 186.592C196.177 190.581 193.585 193.72 190.675 198.041C187.765 202.362 184.421 207.553 180.435 211.114C176.49 214.756 172.436 218.112 168.125 220.422C163.82 222.726 159.55 224.234 155.834 225.219C154.914 225.484 154.034 225.64 153.188 225.878C152.342 226.116 152.762 227.658 151.956 227.787C151.151 227.91 149.547 227.529 148.918 227.679C148.261 227.747 147.253 226.863 146.698 226.986C146.583 228.324 145.635 227.115 145.202 227.088C144.762 227.06 144.363 227.128 144.106 227.128C143.517 227.162 143.192 227.196 143.192 227.196C141.622 227.325 140.025 226.972 138.59 226.361C137.155 225.749 135.87 224.879 134.8 223.915C132.682 221.591 131.464 218.921 131.443 216.06Z" fill="url(#paint12_linear_2027_65223)"/>
<path opacity="0.32" d="M196.557 184.364C198.696 185.009 196.462 185.79 196.462 185.79C191.034 196.417 185.289 204.475 176.761 212.703C168.173 221.292 154.685 229.051 143.281 227.984C186.805 214.049 177.364 178.215 196.557 184.364Z" fill="#371A45"/>
<path d="M193.43 187.768C181.505 208.681 168.552 220.626 152.675 225.369L152.566 225.403C145.697 227.971 138.909 225.899 135.214 222.712C132.798 220.619 131.668 218.098 132.114 215.816C132.703 212.799 135.999 210.163 141.352 208.382C141.718 208.274 142.029 208.049 142.259 207.75C142.496 207.451 142.625 207.085 142.645 206.704C142.672 206.33 142.577 205.957 142.388 205.631C142.198 205.304 141.914 205.046 141.582 204.89C140.736 204.469 139.85 204.258 139.065 204.068C137.549 203.701 136.946 203.497 136.683 202.777L136.662 202.743C136.446 202.193 136.439 201.724 136.655 201.282C137.014 200.535 137.989 199.869 139.254 199.502C140.635 199.101 144.269 199.101 148.039 200.344L148.675 200.555L149.284 200.27C155.382 197.43 160.167 193.55 166.373 187.809L166.461 187.727L166.542 187.632C167.239 186.769 167.963 185.913 168.714 185.009C172.673 180.28 176.781 175.388 178.236 169.511C178.324 169.069 178.25 168.614 178.02 168.227C177.79 167.846 177.418 167.568 176.984 167.459C176.551 167.35 176.098 167.418 175.712 167.642C175.333 167.867 175.049 168.24 174.927 168.675C173.675 173.764 169.831 178.344 166.122 182.767C165.412 183.61 164.681 184.486 163.99 185.335C158.278 190.608 153.846 194.229 148.452 196.845C144.411 195.643 140.351 195.575 138.314 196.166C136.073 196.825 134.388 198.095 133.59 199.76C132.947 201.085 132.913 202.553 133.495 204.007C134.063 205.515 135.106 206.296 136.188 206.779C130.991 209.415 129.252 212.663 128.764 215.143C128.067 218.696 129.603 222.413 132.994 225.341C135.444 227.468 138.713 228.997 142.191 229.649C146.036 230.369 150.001 230.03 153.676 228.664C162.698 225.96 170.677 221.183 178.081 214.035C184.544 207.791 190.554 199.726 196.442 189.371L196.509 189.249L196.564 189.12C197.599 187.462 198.147 187.598 198.574 186.531C199.101 185.132 196.746 181.843 193.43 187.768Z" fill="#20263D"/>
<path d="M61.5818 118.965C61.5818 118.965 51.9726 115.795 55.5045 126.815C55.5045 126.815 60.7112 131.114 61.5818 118.965Z" fill="#40AFE0"/>
<path opacity="0.2" d="M162.254 229.952C134.068 240.693 128.196 226.419 128.783 217.939C138.93 236.312 163.311 225.123 174.234 217.232C173.67 218.928 171.65 223.592 170.71 225.712C168.174 227.408 164.016 229.245 162.254 229.952Z" fill="black"/>
<path opacity="0.2" d="M175.643 267.051C172.261 262.528 168.714 247.5 168.244 240.198C170.217 247.547 177.522 259.984 180.928 265.284C176.418 289.31 190.793 292.254 198.545 290.723C221.094 287.331 217.571 255.627 212.99 240.198L221.094 243.731C222.503 253.624 221.799 258.924 220.742 271.29C220.037 292.843 204.887 296.73 195.021 296.73C179.166 295.67 176.348 283.186 175.995 276.237C175.643 271.29 175.878 269.759 175.643 267.051Z" fill="black"/>
<path d="M44.501 131.534C56.5869 128.79 64.1764 116.75 61.4526 104.64C58.7288 92.5309 46.7232 84.9383 34.6373 87.6818C22.5514 90.4253 14.962 102.466 17.6858 114.575C20.4096 126.685 32.4152 134.277 44.501 131.534Z" fill="#20263D"/>
<g clip-path="url(#clip0_2027_65223)">
<path d="M43.8481 129.889C54.9924 127.359 61.9907 116.257 59.4791 105.09C56.9675 93.9244 45.8972 86.9233 34.7528 89.4531C23.6085 91.9829 16.6103 103.086 19.1219 114.252C21.6335 125.418 32.7038 132.419 43.8481 129.889Z" fill="#FFDE50"/>
<path d="M42.8456 125.428C51.5308 123.456 56.9848 114.803 55.0274 106.101C53.07 97.3992 44.4425 91.943 35.7572 93.9145C27.072 95.8861 21.618 104.539 23.5754 113.241C25.5328 121.943 34.1603 127.399 42.8456 125.428Z" fill="#FFBD00"/>
<path d="M30.6825 123.301C34.1694 125.504 38.4958 126.375 42.8369 125.389C51.5222 123.418 56.9761 114.765 55.0187 106.063C54.0497 101.755 51.4476 98.2437 48.0131 96.036L30.6825 123.301Z" fill="#FAA300"/>
<path d="M20.6167 113.912C18.1615 102.997 24.7967 92.1495 35.503 89.3029C35.2522 89.3498 35.0014 89.3967 34.7528 89.4531C23.6069 91.9832 16.6099 103.084 19.1219 114.252C21.6338 125.419 32.7022 132.419 43.8481 129.889C44.0999 129.832 44.3464 129.766 44.5896 129.701C33.7053 131.755 23.0712 124.824 20.6167 113.912Z" fill="#F0CD00"/>
<path d="M24.25 123.872L26.8169 119.912C26.8169 119.912 27.9099 121.45 30.0283 122.899L27.6252 126.768C27.6245 126.765 25.6878 125.647 24.25 123.872Z" fill="#FFEA94"/>
<path d="M32.9222 124.515L30.4603 128.42C30.4603 128.42 33.1372 129.85 36.2574 130.182L38.9816 125.835C38.9816 125.835 35.9888 125.89 32.9222 124.515Z" fill="#FFEA94"/>
<path d="M43.125 93.9673L45.6719 89.9485C45.6719 89.9485 47.8517 90.5983 49.6817 91.7337L47.2719 95.6172C47.2727 95.6204 45.6549 94.5947 43.125 93.9673Z" fill="#FFEA94"/>
<path d="M49.945 97.524C49.945 97.524 52.4008 99.6686 53.7192 102.417L56.4893 98.1095C56.4893 98.1095 55.1107 95.6297 52.4232 93.6316L49.945 97.524Z" fill="#FFEA94"/>
<path d="M35.7554 93.9143C35.4622 93.9809 35.1711 94.057 34.8847 94.1388C43.2647 92.7165 51.3812 98.0906 53.2726 106.499C55.1639 114.907 50.1361 123.265 41.9615 125.601C42.2551 125.551 42.5473 125.495 42.8437 125.428C51.529 123.456 56.983 114.803 55.0255 106.101C53.0681 97.3989 44.4407 91.9427 35.7554 93.9143Z" fill="#F68E00"/>
<path d="M45.613 107.866C45.5278 107.576 45.4147 107.296 45.1606 107.075C45.0736 107.001 44.9837 106.944 44.8883 106.892L44.7699 106.291C44.5464 105.164 44.0863 104.161 43.4466 103.313L43.4444 103.303C42.3586 101.663 42.0683 99.7318 42.0421 98.2005C42.0338 97.4337 42.0903 96.7764 42.1473 96.3003C42.1609 96.2267 42.1738 96.1499 42.1779 96.0785L42.2528 95.548L41.8344 95.8175C41.7081 95.8965 41.5486 96.0065 41.381 96.1252C40.8428 96.5024 40.1261 97.0545 39.4095 97.771C38.0146 99.1651 36.6409 101.145 36.6181 103.59L36.5607 103.604C36.28 102.623 36.2513 101.677 36.3758 100.786L36.4255 100.456L36.1014 100.519C32.1139 101.334 29.5491 105.212 30.3571 109.221L30.5143 109.994C30.4666 110.065 30.4261 110.138 30.387 110.218C30.2493 110.514 30.2039 110.863 30.2605 111.159C30.3373 111.501 30.4068 111.855 30.4836 112.196L30.4922 112.235C30.5574 112.569 30.6299 112.891 30.7018 113.211C30.7583 113.507 30.9126 113.687 31.0936 113.776C31.1508 113.807 31.2178 113.822 31.2866 113.83L32.557 120.104C32.621 120.388 32.8603 121.273 32.9721 121.547C33.681 122.658 34.4796 122.977 35.8573 123.278C37.235 123.58 38.8882 123.483 40.5936 123.156L40.6127 123.152C40.6223 123.15 40.6414 123.145 40.6701 123.139C40.7296 123.135 40.8093 123.117 40.9049 123.096C41.0993 123.052 41.383 122.987 41.7091 122.903C42.3752 122.722 43.2475 122.43 44.1046 122.01C44.9499 121.583 45.7952 121.022 46.3724 120.267C46.9569 119.5 47.2578 118.559 47.0205 117.414L45.6864 110.813C45.7879 110.773 45.871 110.71 45.9339 110.632C46.0635 110.479 46.1153 110.262 46.0595 109.97C45.9164 109.304 45.7424 108.575 45.613 107.866Z" fill="#F68E00"/>
<path d="M33.9857 120.344L32.4176 113.372C31.9507 112.116 31.6273 110.856 31.666 109.569C30.7426 103.468 34.8515 100.914 36.9933 100.428C37.114 100.965 37.3479 102.868 37.6856 103.55C38.7625 98.3448 41.6728 96.2408 43.0644 95.7403C42.7336 96.2652 42.7714 98.6229 42.8375 99.7358C43.1924 101.448 44.1358 103.006 44.9938 104.318C45.8066 105.936 46.8733 109.487 46.5785 110.678L47.8857 117.175C48.2301 120.702 43.9533 122.196 41.7719 122.507C35.78 123.316 34.4828 121.735 33.9857 120.344Z" fill="#FFEA94"/>
<path fill-rule="evenodd" clip-rule="evenodd" d="M31.5682 109.681L31.3941 108.818C30.5837 104.813 33.1477 100.932 37.1384 100.116L37.4625 100.053L37.4128 100.383C37.2843 101.271 37.313 102.218 37.5977 103.201L37.6551 103.188C37.6779 100.742 39.0516 98.7623 40.4465 97.3682C41.1662 96.651 41.8797 96.0996 42.418 95.7224C42.5856 95.6038 42.7451 95.4937 42.8714 95.4147L43.2898 95.1452L43.2148 95.6757C43.2108 95.7471 43.1979 95.8239 43.1843 95.8975C43.1265 96.3704 43.0708 97.0309 43.0791 97.7977C43.1053 99.329 43.3988 101.26 44.4814 102.9L44.4835 102.91C45.1233 103.758 45.5866 104.761 45.8068 105.889L45.9501 106.615L45.4471 106.464L45.3489 105.983L45.3468 105.973C45.1362 104.903 44.7015 103.968 44.1034 103.171L44.1012 103.161L44.0873 103.144C42.9301 101.41 42.6344 99.3654 42.6113 97.8032C42.6061 97.1397 42.649 96.556 42.6955 96.0924C42.6859 96.0945 42.6785 96.1063 42.6785 96.1063C42.1573 96.4696 41.4607 97.007 40.7654 97.6986C39.3697 99.0895 38.0587 101.035 38.1167 103.378L38.1223 103.582L37.2733 103.724L37.2103 103.534C36.8937 102.528 36.8171 101.562 36.9104 100.651C33.3505 101.55 31.0994 105.095 31.8389 108.741L31.9651 109.346L31.5682 109.681ZM32.7625 113.264L34.0441 119.602C34.0935 119.866 34.3249 120.716 34.4273 120.948C34.6404 121.433 35.7134 122.123 36.9829 122.405C38.2627 122.689 39.8515 122.603 41.5385 122.284L41.548 122.282L41.5576 122.28C41.5671 122.278 41.5863 122.273 41.615 122.267C41.6628 122.256 41.7424 122.238 41.8402 122.226C42.0251 122.184 42.296 122.122 42.6253 122.038C43.2722 121.861 44.118 121.585 44.939 121.183C45.7578 120.773 46.5373 120.247 47.053 119.576C47.556 118.908 47.8166 118.1 47.6123 117.103L46.2526 110.373L46.702 110.271L48.0639 117.01C48.3012 118.155 48.0003 119.096 47.4157 119.863C46.8386 120.618 45.9933 121.179 45.1479 121.606C44.2909 122.025 43.4154 122.318 42.7525 122.499C42.4232 122.584 42.1427 122.647 41.9483 122.691C41.8495 122.714 41.773 122.731 41.7135 122.735C41.6848 122.741 41.6656 122.745 41.6561 122.748L41.637 122.752C39.9316 123.079 38.2751 123.176 36.9007 122.874C35.5262 122.572 34.7268 122.25 34.0154 121.142C33.9037 120.869 33.6643 119.983 33.6004 119.699L32.3058 113.304L32.7625 113.264Z" fill="#D68E1B"/>
<path d="M32.062 109.529C32.062 109.529 31.2432 109.94 31.8573 111.717C31.8573 111.717 31.886 113.617 33.1001 112.878C33.1001 112.878 38.7353 109.887 46.1533 110.13C46.1533 110.13 47.1801 110.421 46.6524 108.983C46.6524 108.983 46.6132 106.441 44.9491 106.594C44.9545 106.603 38.7717 105.804 32.062 109.529Z" fill="#FFEA94"/>
<path d="M46.1968 106.67C45.9435 106.452 45.6426 106.336 45.3505 106.318C40.7424 106.146 36.1837 107.117 32.0467 109.144C31.7759 109.265 31.5584 109.52 31.4214 109.819C31.2837 110.116 31.2384 110.465 31.2949 110.761C31.3718 111.103 31.4412 111.456 31.5181 111.798L31.5267 111.836C31.5918 112.17 31.6644 112.493 31.7362 112.812C31.7927 113.108 31.9471 113.288 32.1281 113.378C32.313 113.47 32.5564 113.465 32.8272 113.343C37.0321 111.261 41.6715 110.292 46.3542 110.467C46.6551 110.48 46.8483 110.385 46.9754 110.236C47.105 110.082 47.1568 109.866 47.101 109.573C46.9494 108.899 46.7754 108.17 46.6468 107.464C46.5672 107.17 46.4501 106.888 46.1968 106.67ZM46.4484 109.144C46.4891 109.369 46.553 109.654 46.4258 109.773C46.2986 109.893 45.9381 109.884 45.6639 109.886C41.3664 109.918 37.0634 110.834 33.1198 112.589C32.8692 112.696 32.5674 112.859 32.3985 112.793C32.242 112.738 32.176 112.444 32.1374 112.228C32.0828 111.985 32.0349 111.727 31.9803 111.485L31.9738 111.456C31.9245 111.192 31.867 110.936 31.8081 110.675C31.7674 110.449 31.8233 110.191 31.9615 109.942C31.9985 109.883 32.0572 109.816 32.1229 109.751C32.3056 109.565 32.5284 109.424 32.7652 109.33C37.051 107.517 40.3128 106.827 44.8963 106.801C45.3095 106.821 45.4543 106.869 45.6691 107.004C45.8604 107.125 45.9626 107.267 46.0437 107.493C46.0872 107.598 46.1109 107.703 46.1354 107.812C46.2477 108.296 46.3406 108.665 46.4484 109.144Z" fill="#D68E1B"/>
<path d="M43.6854 108.958C43.6715 108.941 43.6693 108.932 43.6555 108.915C43.6394 108.888 43.6138 108.864 43.5883 108.839C43.5627 108.815 43.5371 108.79 43.5115 108.766L43.4646 108.736L43.4177 108.707C43.2849 108.623 43.1199 108.559 42.9362 108.517C42.7532 108.478 42.5643 108.457 42.3686 108.451L42.2251 108.454C42.1751 108.455 42.1347 108.454 42.0837 108.466L41.9423 108.478C41.9232 108.482 41.8924 108.479 41.8732 108.483L41.7967 108.501L41.648 108.524C41.6001 108.535 41.5491 108.547 41.5013 108.558C41.4535 108.568 41.4025 108.58 41.3568 108.601C41.309 108.611 41.2602 108.633 41.2241 108.651C40.9416 108.765 40.7025 108.924 40.5294 109.107C40.5346 109.086 40.5377 109.055 40.5525 109.031C40.5757 108.956 40.6077 108.875 40.6362 108.808C40.6585 108.772 40.6711 108.739 40.6838 108.706C40.6912 108.695 40.6964 108.673 40.7113 108.65L40.7409 108.603C40.7535 108.57 40.7853 108.532 40.8076 108.497C40.8298 108.462 40.852 108.426 40.8742 108.391L40.9134 108.342C40.9304 108.328 40.9356 108.307 40.9526 108.293L40.9918 108.244C41.0088 108.23 41.0162 108.218 41.031 108.194C41.0872 108.131 41.1487 108.077 41.2084 108.03C41.2424 108.002 41.2785 107.984 41.306 107.958C41.323 107.944 41.3421 107.939 41.3591 107.925C41.3761 107.911 41.3952 107.907 41.4122 107.893L41.4387 107.877C41.4461 107.865 41.4652 107.861 41.4705 107.84C41.4779 107.828 41.4853 107.816 41.4905 107.795C41.4884 107.785 41.4958 107.773 41.4819 107.756C41.4681 107.739 41.4563 107.732 41.4255 107.729C41.4159 107.731 41.4042 107.724 41.3947 107.726C41.3734 107.721 41.3542 107.725 41.3351 107.729C41.316 107.734 41.2969 107.738 41.2682 107.745L41.2299 107.753L41.1917 107.762C41.095 107.794 40.9963 107.847 40.8987 107.919C40.8011 107.992 40.7191 108.074 40.6258 108.166L40.5718 108.238C40.557 108.262 40.5326 108.287 40.5178 108.311L40.4638 108.384C40.4564 108.395 40.449 108.407 40.4416 108.419L40.4193 108.454L40.3675 108.536C40.3527 108.56 40.34 108.593 40.3252 108.617C40.3104 108.64 40.2977 108.673 40.2851 108.706C40.2724 108.739 40.2576 108.763 40.2545 108.794C40.1708 109.017 40.1477 109.227 40.1872 109.403C40.1958 109.441 40.2044 109.48 40.2233 109.519C40.2276 109.538 40.2437 109.565 40.2575 109.582C40.2597 109.591 40.2618 109.601 40.2736 109.608C40.2874 109.625 40.3087 109.631 40.3322 109.645C40.3534 109.651 40.3843 109.654 40.413 109.647C40.4417 109.641 40.4703 109.634 40.4873 109.62L40.5043 109.606C40.6232 109.539 40.7463 109.461 40.8644 109.39C40.9833 109.323 41.1012 109.266 41.2119 109.207C41.3234 109.152 41.4456 109.114 41.5592 109.068C41.6166 109.055 41.675 109.032 41.7324 109.019C41.761 109.012 41.7897 109.006 41.8184 108.999L41.9045 108.98C41.9619 108.967 42.0341 108.96 42.1011 108.945C42.168 108.93 42.2307 108.926 42.2998 108.92L42.403 108.917C42.4317 108.91 42.4625 108.913 42.5061 108.914L42.6092 108.91C42.6401 108.913 42.6709 108.916 42.6996 108.91C42.8336 108.91 42.9591 108.932 43.079 108.958C43.1428 108.974 43.2098 108.989 43.2641 109.007C43.2971 109.019 43.328 109.022 43.3514 109.037C43.3844 109.05 43.4078 109.065 43.4387 109.068L43.4929 109.086C43.5142 109.091 43.5451 109.094 43.5642 109.09C43.5929 109.083 43.612 109.079 43.6385 109.063C43.6555 109.049 43.6725 109.035 43.6799 109.023C43.6873 109.011 43.6925 108.99 43.6787 108.973C43.7021 108.988 43.7 108.978 43.6854 108.958Z" fill="#D68E1B"/>
<path d="M36.4696 110.7C37.0243 110.574 37.3692 110.023 37.245 109.47C37.12 108.915 36.57 108.569 36.0185 108.695C35.4639 108.821 35.1189 109.372 35.2432 109.925C35.3642 110.478 35.915 110.826 36.4696 110.7Z" fill="#D68E1B"/>
<path d="M35.7442 109.841C35.8939 109.807 35.9877 109.658 35.9539 109.508C35.9202 109.358 35.7719 109.264 35.6222 109.298C35.4726 109.332 35.3788 109.481 35.4126 109.631C35.4456 109.778 35.5946 109.875 35.7442 109.841Z" fill="#FFEA94"/>
<path d="M44.8766 112.031C44.8831 112.194 44.8791 112.4 44.8784 112.635C44.8654 113.262 44.8035 114.119 44.6155 115.011C44.247 116.813 43.3745 118.713 41.4552 119.414C39.5358 120.114 37.8491 119.198 36.5982 118.046C35.9759 117.469 35.4712 116.848 35.1264 116.373C35.0082 116.205 34.9008 116.055 34.8242 115.938C34.9146 115.937 35.0156 115.925 35.1378 115.917C35.631 115.875 36.3543 115.785 37.2967 115.551C39.0931 115.093 41.6679 114.119 44.8766 112.031Z" fill="#D68E1B"/>
<path d="M36.0755 115.811C36.0755 115.811 36.7182 116.434 37.2669 116.833C37.5702 117.05 37.9539 117.117 38.3119 117.026C39.3552 116.748 41.9083 115.87 44.763 113.339C44.763 113.339 44.8775 112.031 44.5939 112.23C40.661 115.106 36.0755 115.811 36.0755 115.811Z" fill="#FFEA94"/>
<path d="M41.5524 117.119C40.4026 118.055 39.7307 119.03 39.3363 119.629C39.972 119.73 40.6552 119.669 41.3555 119.416C43.5005 118.63 44.163 117.345 44.5139 115.45C43.77 115.702 42.4275 116.407 41.5524 117.119Z" fill="#FFEA94"/>
<path d="M34.5074 115.798C34.5074 115.798 37.2553 121.014 41.6139 119.75C41.6139 119.75 45.5352 118.819 45.2421 111.693C45.2414 111.689 39.6723 115.719 34.5074 115.798ZM42.0289 119.048C41.6189 119.265 41.2821 119.362 40.8868 119.421C37.5186 119.951 35.3943 116.241 35.3943 116.241C39.9785 115.845 44.7599 112.557 44.7599 112.557C44.6923 116.755 43.1325 118.458 42.0289 119.048Z" fill="#D68E1B"/>
</g>
<path d="M62.8954 115.476C62.8954 115.476 55.0636 113.986 54.5497 122.268C54.5497 122.268 54.2098 126.193 54.7238 127.679C55.6356 130.334 58.2635 130.011 58.1972 125.728C58.1972 125.728 58.2407 118.435 62.5431 118.302C62.5431 118.302 64.7689 118.679 62.8954 115.476Z" fill="#20263D"/>
<defs>
<linearGradient id="paint0_linear_2027_65223" x1="160.203" y1="105.803" x2="224.637" y2="246.503" gradientUnits="userSpaceOnUse">
<stop stop-color="#BB70C8"/>
<stop offset="1" stop-color="#471D7B"/>
</linearGradient>
<linearGradient id="paint1_linear_2027_65223" x1="302.129" y1="308.39" x2="437.803" y2="334.043" gradientUnits="userSpaceOnUse">
<stop stop-color="#FFDB72" stop-opacity="0.15"/>
<stop offset="0.197917" stop-color="#FFDB72" stop-opacity="0.25"/>
<stop offset="1" stop-color="#342F13" stop-opacity="0"/>
</linearGradient>
<linearGradient id="paint2_linear_2027_65223" x1="52.7564" y1="112.59" x2="110.36" y2="174.353" gradientUnits="userSpaceOnUse">
<stop stop-color="#44B7E5"/>
<stop offset="1" stop-color="#2B87C9"/>
</linearGradient>
<linearGradient id="paint3_linear_2027_65223" x1="141.893" y1="118.195" x2="178.24" y2="241.806" gradientUnits="userSpaceOnUse">
<stop stop-color="#4DC7EE"/>
<stop offset="1" stop-color="#1D6FBA"/>
</linearGradient>
<linearGradient id="paint4_linear_2027_65223" x1="123.35" y1="59.8358" x2="176.016" y2="91.8166" gradientUnits="userSpaceOnUse">
<stop stop-color="#6BD8FF"/>
<stop offset="1" stop-color="#45B9E6"/>
</linearGradient>
<linearGradient id="paint5_linear_2027_65223" x1="122.677" y1="91.2585" x2="122.677" y2="225.145" gradientUnits="userSpaceOnUse">
<stop stop-color="#AAE8FD"/>
<stop offset="1" stop-color="#82DBFA" stop-opacity="0"/>
</linearGradient>
<linearGradient id="paint6_linear_2027_65223" x1="145.845" y1="64.1594" x2="151.398" y2="96.0051" gradientUnits="userSpaceOnUse">
<stop stop-color="#B06EC2"/>
<stop offset="0.9583" stop-color="#663796"/>
</linearGradient>
<linearGradient id="paint7_linear_2027_65223" x1="312.537" y1="310.952" x2="374.988" y2="326.339" gradientUnits="userSpaceOnUse">
<stop stop-color="#FF4545"/>
<stop offset="1" stop-color="#F7931E"/>
</linearGradient>
<linearGradient id="paint8_linear_2027_65223" x1="364.424" y1="300.609" x2="377.998" y2="306.828" gradientUnits="userSpaceOnUse">
<stop stop-color="#FF4545"/>
<stop offset="1" stop-color="#F7931E"/>
</linearGradient>
<linearGradient id="paint9_linear_2027_65223" x1="377.462" y1="322.662" x2="386.689" y2="324.612" gradientUnits="userSpaceOnUse">
<stop stop-color="#FF4545"/>
<stop offset="1" stop-color="#F7931E"/>
</linearGradient>
<linearGradient id="paint10_linear_2027_65223" x1="402.781" y1="325.046" x2="412.144" y2="327.244" gradientUnits="userSpaceOnUse">
<stop stop-color="#FF4545"/>
<stop offset="1" stop-color="#F7931E"/>
</linearGradient>
<linearGradient id="paint11_linear_2027_65223" x1="170.383" y1="250.264" x2="215.706" y2="250.264" gradientUnits="userSpaceOnUse">
<stop stop-color="#4DC7EE"/>
<stop offset="1" stop-color="#1D6FBA"/>
</linearGradient>
<linearGradient id="paint12_linear_2027_65223" x1="181.667" y1="162.71" x2="199.009" y2="184.725" gradientUnits="userSpaceOnUse">
<stop stop-color="#3BA4DA"/>
<stop offset="1" stop-color="#3091CF"/>
</linearGradient>
<clipPath id="clip0_2027_65223">
<rect width="41.3807" height="41.4429" fill="white" transform="matrix(0.97519 -0.221371 0.219448 0.975625 14.5742 94.0337)"/>
</clipPath>
</defs>
</svg>
